# xmcd
#
# Track frame offsets: 
#        150
#        12220
#        23527
#        34062
#        50007
#        63102
#        82702
#        92025
#        104300
#        125260
#        140882
#        154797
#        172792
#        192955
#        208440
#        225745
#        237220
#        250877
#        266610
#        293090
#
# Disc length: 4113 seconds
#
# Revision: 6
# Processed by: cddbd v1.5.2PL0 Copyright (c) Steve Scherf et al.
# Submitted via: ExactAudioCopy v0.99pb4
#
DISCID=09100f14
DTITLE=Willie Nelson - Willie Nelson's Greatest Hits (& Some That Will
DTITLE=Be)
DYEAR=1981
DGENRE=Country
TTITLE0=Railroad Lady
TTITLE1=Heartaches of a Fool
TTITLE2=Blue Eyes Crying in the Rain
TTITLE3=Whiskey River
TTITLE4=Good Hearted Woman
TTITLE5=Georgia on My Mind
TTITLE6=If You've Got the Money I've Got the Time
TTITLE7=Look What Thoughts Will Do
TTITLE8=Uncloudy Day
TTITLE9=Mammas Don't Let Your Babies Grow Up to Be Cowboys
TTITLE10=My Heroes Have Always Been Cowboys
TTITLE11=Help Me Make It Through the Night
TTITLE12=Angel Flying Too Close to the Ground
TTITLE13=I'd Have to Be Crazy
TTITLE14=Faded Love
TTITLE15=On the Road Again
TTITLE16=Heartbreak Hotel
TTITLE17=If You Could Touch Her at All
TTITLE18=Till I Gain Control Again
TTITLE19=Stay a Little Longer
EXTD=
EXTT0=
EXTT1=
EXTT2=
EXTT3=
EXTT4=
EXTT5=
EXTT6=
EXTT7=
EXTT8=
EXTT9=
EXTT10=
EXTT11=
EXTT12=
EXTT13=
EXTT14=
EXTT15=
EXTT16=
EXTT17=
EXTT18=
EXTT19=
PLAYORDER=
